<?xml version="1.0" standalone="no"?>
<!DOCTYPE svg PUBLIC "-//W3C//DTD SVG 20010904//EN"
 "http://www.w3.org/TR/2001/REC-SVG-20010904/DTD/svg10.dtd">
<svg version="1.0" xmlns="http://www.w3.org/2000/svg"
 width="828.000000pt" height="828.000000pt" viewBox="0 0 828.000000 828.000000"
 preserveAspectRatio="xMidYMid meet">

<g transform="translate(0.000000,828.000000) scale(0.100000,-0.100000)"
fill="#000000" stroke="none">
<path d="M4989 5620 c-43 -22 -122 -108 -149 -162 -52 -99 -61 -168 -31 -233
22 -49 43 -68 106 -97 47 -21 62 -23 225 -22 137 1 205 7 313 26 76 13 140 22
142 18 6 -9 -42 -205 -76 -310 -37 -113 -99 -246 -135 -289 -31 -37 -77 -42
-94 -12 -15 29 -13 35 21 55 36 21 61 74 57 120 -2 25 -8 32 -30 34 -32 4 -60
-23 -95 -93 -51 -99 -170 -232 -198 -221 -21 8 -15 49 27 190 16 54 27 105 24
112 -10 25 -43 14 -110 -36 -37 -27 -71 -50 -77 -50 -8 0 -6 29 7 69 8 24 -6
51 -26 51 -22 0 -40 -28 -40 -63 0 -13 -10 -33 -22 -45 -27 -24 -137 -92 -151
-92 -5 0 -6 16 -2 38 32 168 51 299 44 306 -5 5 -15 4 -24 -4 -13 -11 -18 -10
-29 5 -9 13 -20 16 -39 11 -31 -7 -59 -74 -75 -179 -10 -60 -18 -78 -68 -144
-75 -100 -149 -176 -166 -171 -19 7 -13 64 22 185 17 59 29 112 26 120 -10 24
-43 13 -109 -37 -75 -57 -92 -62 -83 -25 3 14 9 36 12 49 3 15 -1 29 -12 41
-17 17 -19 16 -36 -5 -10 -12 -18 -28 -18 -36 0 -11 -17 -14 -70 -14 -66 0
-70 1 -70 23 0 36 -27 67 -59 67 -32 0 -81 -46 -81 -77 0 -18 -8 -22 -50 -28
-27 -4 -92 -19 -145 -34 -53 -16 -97 -25 -99 -22 -1 3 -9 27 -16 54 -27 99
-135 169 -300 195 -52 8 -102 16 -110 19 -8 2 22 23 70 49 234 125 354 261
355 401 0 75 -18 104 -94 150 -81 49 -170 65 -346 64 -326 -2 -708 -118 -974
-295 -148 -98 -241 -199 -241 -259 0 -43 18 -67 63 -87 64 -27 132 -32 224
-16 127 23 197 67 162 102 -12 11 -18 11 -40 0 -100 -51 -247 -71 -329 -43
-122 42 58 228 355 368 257 121 551 192 790 191 244 -1 385 -65 385 -175 0
-88 -134 -237 -285 -315 -148 -77 -391 -172 -440 -172 -20 0 -17 12 37 128 42
92 46 127 13 127 -14 0 -21 -8 -23 -25 -5 -43 -32 -109 -120 -290 -281 -579
-312 -646 -312 -673 0 -8 -34 -45 -77 -82 -131 -119 -164 -197 -103 -249 62
-52 150 -56 325 -16 177 41 377 134 588 274 197 130 357 307 420 465 24 61 28
66 69 78 54 17 230 63 240 63 5 0 8 -21 8 -48 0 -53 21 -92 50 -92 19 0 61 60
75 110 11 35 21 40 98 40 67 0 67 0 67 -28 0 -68 46 -68 128 -1 35 28 65 49
67 47 2 -1 -11 -50 -27 -108 -23 -79 -29 -115 -24 -143 12 -65 59 -62 128 8
43 44 46 45 91 39 39 -6 48 -11 60 -38 32 -69 37 -100 27 -161 -13 -77 -13
-212 0 -220 24 -15 41 45 51 181 5 77 15 170 22 209 l12 69 59 33 c32 18 71
44 88 58 36 31 41 31 53 3 18 -41 54 -34 123 23 35 28 65 49 67 47 2 -1 -11
-51 -28 -110 -25 -88 -29 -113 -21 -145 17 -72 75 -52 169 59 l50 58 12 -29
c16 -38 49 -61 89 -61 24 0 40 9 64 37 29 32 74 118 94 177 15 44 16 2 1 -75
-25 -139 -55 -343 -55 -378 0 -25 4 -32 17 -29 19 3 22 15 52 188 35 196 59
330 81 445 35 186 50 270 50 281 0 30 30 45 125 64 55 11 188 37 295 60 237
48 442 74 528 65 36 -4 82 -17 109 -31 40 -22 48 -23 61 -11 24 24 3 69 -44
92 -33 17 -57 20 -154 19 -136 -1 -150 -4 -568 -96 -177 -39 -325 -69 -328
-66 -2 3 4 46 16 97 23 106 25 124 8 119 -14 -5 -67 -150 -68 -184 0 -43 -22
-55 -146 -79 -65 -13 -182 -28 -259 -35 -121 -11 -150 -10 -214 4 -130 28
-176 70 -176 164 0 66 33 146 85 205 40 46 79 67 139 76 41 5 46 9 46 31 0 21
-5 25 -30 27 -16 2 -46 -6 -66 -17z m-349 -797 c0 -16 -12 -46 -25 -68 l-26
-40 6 35 c16 88 45 135 45 73z m-1299 -22 c68 -26 123 -74 138 -120 20 -63 19
-65 -96 -109 -500 -190 -599 -231 -790 -333 -73 -39 -113 -55 -113 -46 0 18
61 170 170 428 l63 147 84 22 c115 30 205 39 358 35 102 -2 142 -8 186 -24z
m590 -64 c-1 -12 -15 -9 -19 4 -3 6 1 10 8 8 6 -3 11 -8 11 -12z m708 -97
c-13 -84 -30 -110 -71 -110 -23 0 -68 21 -68 32 0 14 49 83 60 84 6 1 14 2 20
3 5 0 22 19 36 41 15 22 29 38 32 36 2 -3 -1 -42 -9 -86z m676 4 c-25 -38 -32
-19 -10 23 15 26 21 32 23 19 2 -9 -4 -28 -13 -42z m-1395 17 c0 -18 -21 -64
-26 -58 -9 8 6 67 17 67 5 0 9 -4 9 -9z m-446 -113 c-32 -104 -217 -305 -387
-423 -136 -94 -360 -205 -512 -254 -113 -37 -138 -42 -236 -44 -100 -2 -112 0
-125 18 -28 37 3 94 89 167 43 36 52 40 69 29 24 -15 34 -9 58 38 14 29 38 50
97 84 121 71 385 194 598 277 147 58 339 129 348 129 5 1 5 -9 1 -21z m1128
-80 c-7 -7 -12 -2 -17 12 -5 15 -2 25 6 31 17 10 26 -28 11 -43z"/>
<path d="M5609 4733 c-14 -38 -4 -105 26 -171 31 -67 31 -70 -1 -113 -39 -52
-84 -145 -84 -174 0 -25 39 -75 58 -75 20 0 59 41 87 91 25 46 29 64 29 133
l0 79 75 65 c42 35 100 80 129 100 54 36 65 52 34 52 -24 0 -89 -43 -178 -119
-40 -33 -75 -57 -78 -53 -18 17 -46 98 -46 131 0 79 -30 109 -51 54z m71 -327
c0 -54 -53 -156 -82 -156 -24 0 4 96 44 153 24 33 38 35 38 3z"/>
<path d="M3747 4023 c-4 -3 0 -15 8 -27 21 -30 22 -428 1 -468 l-15 -28 127 0
c70 0 143 5 163 10 81 23 122 117 85 198 -17 37 -69 82 -96 82 -9 0 -7 7 7 23
11 12 26 32 32 44 28 55 -3 134 -61 151 -38 12 -242 24 -251 15z m226 -45 c14
-18 20 -43 20 -74 0 -41 -4 -51 -32 -76 -27 -24 -40 -29 -74 -26 l-42 3 -3
103 -3 103 57 -3 c48 -3 60 -7 77 -30z m8 -209 c46 -23 85 -93 74 -132 -27
-98 -62 -127 -154 -127 l-61 0 0 140 0 140 50 0 c32 0 66 -8 91 -21z"/>
<path d="M4093 4023 c-7 -3 -3 -13 11 -28 12 -12 53 -83 91 -156 38 -74 75
-145 82 -159 15 -30 17 -133 3 -161 -10 -18 -7 -19 37 -19 l48 0 -4 85 -3 86
57 112 c56 112 51 123 -7 15 -32 -61 -68 -101 -68 -78 0 7 -6 21 -14 29 -26
30 -126 229 -126 250 0 11 -3 21 -7 22 -41 4 -90 6 -100 2z"/>
<path d="M4517 4023 c-4 -3 -7 -17 -7 -29 0 -13 -4 -25 -9 -28 -5 -3 -14 -21
-20 -38 -8 -27 -8 -29 2 -14 7 10 24 37 39 59 25 38 28 57 9 57 -4 0 -11 -3
-14 -7z"/>
<path d="M3952 3173 c-9 -17 -118 -352 -197 -603 -58 -183 -59 -185 -91 -188
-88 -9 -59 -32 41 -32 78 0 118 8 109 21 -3 5 -26 9 -51 9 -39 0 -44 2 -38 18
4 9 22 64 40 122 l33 105 124 3 123 3 38 -114 c20 -62 37 -118 37 -125 0 -7
-15 -12 -39 -12 -40 0 -62 -14 -38 -23 20 -8 271 -9 290 -1 30 11 18 23 -25
26 l-41 3 -102 305 c-56 168 -116 349 -134 403 -26 77 -37 97 -51 97 -11 0
-23 -8 -28 -17z m-22 -196 c0 -2 23 -70 50 -151 28 -81 50 -152 50 -157 0 -5
-47 -9 -105 -9 -84 0 -105 3 -105 14 0 8 18 70 39 138 22 67 42 133 46 146 3
12 11 22 16 22 5 0 9 -1 9 -3z"/>
<path d="M2715 3170 c-7 -12 -10 -11 83 -19 10 -1 12 -81 10 -383 l-3 -383
-45 -5 c-25 -3 -43 -9 -40 -15 5 -10 257 -19 298 -10 37 9 15 25 -34 25 l-44
0 0 138 0 138 46 55 c26 30 52 55 59 57 10 2 212 -321 231 -371 5 -14 -1 -17
-41 -17 -33 0 -45 -4 -42 -12 5 -16 327 -19 327 -3 0 6 -18 11 -40 13 l-40 3
-145 244 c-80 134 -147 250 -151 258 -3 8 7 27 22 43 14 16 62 73 106 127 76
92 82 97 118 97 46 0 72 9 64 21 -7 12 -224 12 -224 -1 0 -9 22 -17 68 -22 20
-3 6 -24 -124 -178 -81 -96 -163 -194 -183 -217 -19 -24 -39 -43 -43 -43 -4 0
-8 99 -8 220 l0 220 34 0 c42 0 68 9 60 21 -7 13 -311 12 -319 -1z"/>
<path d="M4483 3168 c2 -7 17 -14 33 -14 16 -1 35 -2 42 -3 9 -1 12 -85 12
-385 l0 -385 -45 -3 c-25 -2 -45 -7 -45 -13 0 -12 166 -18 258 -9 70 6 75 24
6 24 l-44 0 0 385 0 385 34 0 c40 0 66 8 66 21 0 5 -72 9 -161 9 -124 0 -160
-3 -156 -12z"/>
<path d="M4929 3075 c-20 -58 -33 -107 -29 -110 5 -3 22 19 39 49 57 99 119
136 229 136 l53 0 -3 -382 -3 -383 -35 -3 c-19 -1 -42 -5 -50 -8 -35 -14 31
-23 168 -23 120 -1 142 1 142 14 0 11 -12 15 -45 15 l-45 0 0 385 0 385 58 0
c105 0 190 -59 232 -160 12 -30 30 -41 30 -18 0 6 -16 55 -37 110 l-36 98
-316 0 -316 0 -36 -105z"/>
</g>
</svg>
